HIERARCHY
ROOT Hips
{
	OFFSET -3.958830 18.904000 13.208200
	CHANNELS 6 Xposition Yposition Zposition Zrotation Yrotation Xrotation 
	JOINT LHipJoint
	{
		OFFSET 0.000000 0.000000 0.000000
		CHANNELS 3 Zrotation Yrotation Xrotation
		JOINT LeftUpLeg
		{
			OFFSET 1.800000 -1.400000 0.085000
			CHANNELS 3 Zrotation Yrotation Xrotation
			JOINT LeftLeg
			{
				OFFSET 2.215000 -6.000000 0.000000
				CHANNELS 3 Zrotation Yrotation Xrotation
				JOINT LeftFoot
				{
					OFFSET 2.500000 -6.900000 0.000000
					CHANNELS 3 Zrotation Yrotation Xrotation
					JOINT LeftToeBase
					{
						OFFSET 0.200000 -0.500000 1.950000
						CHANNELS 3 Zrotation Yrotation Xrotation
						End Site
						{
							OFFSET 0.000000 0.000000 0.000000
						}
					}
				}
			}
		}
	}
	JOINT RHipJoint
	{
		OFFSET 0.000000 0.000000 0.000000
		CHANNELS 3 Zrotation Yrotation Xrotation
		JOINT RightUpLeg
		{
			OFFSET -1.800000 -1.400000 0.085000
			CHANNELS 3 Zrotation Yrotation Xrotation
			JOINT RightLeg
			{
				OFFSET -2.215000 -6.000000 0.000000
				CHANNELS 3 Zrotation Yrotation Xrotation
				JOINT RightFoot
				{
					OFFSET -2.500000 -6.900000 0.000000
					CHANNELS 3 Zrotation Yrotation Xrotation
					JOINT RightToeBase
					{
						OFFSET -0.200000 -0.500000 1.950000
						CHANNELS 3 Zrotation Yrotation Xrotation
						End Site
						{
							OFFSET 0.000000 0.000000 0.000000
						}
					}
				}
			}
		}
	}
	JOINT LowerBack
	{
		OFFSET 0.000000 0.000000 0.000000
		CHANNELS 3 Zrotation Yrotation Xrotation
		JOINT Spine
		{
			OFFSET -0.087000 1.940000 -0.288900
			CHANNELS 3 Zrotation Yrotation Xrotation
			JOINT Spine1
			{
				OFFSET 0.000000 1.950000 0.060000
				CHANNELS 3 Zrotation Yrotation Xrotation
				JOINT Neck
				{
					OFFSET 0.000000 0.000000 0.000000
					CHANNELS 3 Zrotation Yrotation Xrotation
					JOINT Neck1
					{
						OFFSET 0.000000 1.600000 0.340000
						CHANNELS 3 Zrotation Yrotation Xrotation
						JOINT Head
						{
							OFFSET 0.000000 1.667000 -0.240000
							CHANNELS 3 Zrotation Yrotation Xrotation
							End Site
							{
								OFFSET 0.000000 0.000000 0.000000
							}
						}
					}
				}
				JOINT LeftShoulder
				{
					OFFSET 0.000000 0.000000 0.000000
					CHANNELS 3 Zrotation Yrotation Xrotation
					JOINT LeftArm
					{
						OFFSET 2.700000 1.550000 -0.730000
						CHANNELS 3 Zrotation Yrotation Xrotation
						JOINT LeftForeArm
						{
							OFFSET 5.450000 0.000000 0.000000
							CHANNELS 3 Zrotation Yrotation Xrotation
							JOINT LeftHand
							{
								OFFSET 3.450000 0.000000 0.000000
								CHANNELS 3 Zrotation Yrotation Xrotation
								JOINT LeftHandIndex1
								{
									OFFSET 0.750000 0.000000 0.000000
									CHANNELS 3 Zrotation Yrotation Xrotation
									End Site
									{
										OFFSET 0.000000 0.000000 0.000000
									}
								}
							}
						}
					}
				}
				JOINT RightShoulder
				{
					OFFSET 0.000000 0.000000 0.000000
					CHANNELS 3 Zrotation Yrotation Xrotation
					JOINT RightArm
					{
						OFFSET -2.700000 1.550000 -0.730000
						CHANNELS 3 Zrotation Yrotation Xrotation
						JOINT RightForeArm
						{
							OFFSET -5.450000 0.000000 0.000000
							CHANNELS 3 Zrotation Yrotation Xrotation
							JOINT RightHand
							{
								OFFSET -3.450000 0.000000 0.000000
								CHANNELS 3 Zrotation Yrotation Xrotation
								JOINT RightHandIndex1
								{
									OFFSET -0.750000 0.000000 0.000000
									CHANNELS 3 Zrotation Yrotation Xrotation
									End Site
									{
										OFFSET 0.000000 0.000000 0.000000
									}
								}
							}
						}
					}
				}
			}
		}
	}
}
MOTION
Frames: 9
Frame Time: 0.016667
0.508480 15.325530 -0.719170 -6.998809 -22.235114 -0.881002 -15.548883 12.595230 2.678068 -0.621171 0.571177 14.502530 -10.919460 16.029415 40.434526 1.386273 9.897158 1.379094 0.720840 0.382410 0.653250 18.458656 -6.967801 6.080083 -2.363467 19.745979 -55.613408 18.184652 -20.702186 64.146214 -2.272487 -11.447610 0.708160 0.070970 -0.158760 0.346230 -3.513496 -4.830293 -9.009985 16.755686 -9.754773 42.555131 -1.246633 -5.965027 3.704351 1.055409 -9.849840 -10.150873 -22.252633 12.134454 30.970162 -10.788650 10.016960 -15.430680 -10.574051 2.655088 2.426268 -7.285899 13.383146 -2.679354 -88.180308 -68.911942 58.760921 -3.628757 3.660167 0.534780 -0.064790 0.239730 0.207460 8.975447 2.798700 5.666829 28.516465 -10.797470 -10.271945 65.791177 59.327501 30.219001 2.065082 -2.168594 0.127060 -0.085280 -0.298250 -0.242640 
0.514030 15.359890 -0.704460 -6.850602 -22.012580 -0.820372 -15.550001 12.658352 2.695418 -0.826484 0.674858 14.472869 -10.494564 15.659236 40.010684 1.366271 9.786493 1.426207 0.680970 0.328820 0.638310 18.444769 -7.005250 6.029388 -2.363093 19.345173 -55.048217 18.057284 -20.382311 63.430220 -2.207419 -11.277345 0.758252 0.041840 -0.144430 0.337360 -3.473295 -4.902725 -8.996203 16.724369 -9.849977 42.442204 -1.337058 -6.001574 3.124048 1.338942 -9.807009 -10.325302 -22.109112 11.813078 30.927536 -11.309480 10.077390 -14.525710 -10.972162 2.348407 2.580729 -7.565213 13.846376 -2.765892 -89.203788 -67.165463 58.101943 -3.613859 3.709852 0.530010 -0.053680 0.220520 0.196990 8.879370 3.119582 5.848674 29.216836 -10.812655 -10.474068 65.789151 58.957595 29.945248 2.077544 -2.150642 0.110130 -0.084820 -0.283210 -0.248170 
0.530300 15.474080 -0.656260 -7.150070 -21.316212 0.101402 -15.495105 12.743754 2.669933 -0.828494 0.909907 14.250096 -9.172491 14.312482 37.924403 1.238013 9.261735 1.589573 0.666100 0.304040 0.638670 18.466677 -7.188834 5.925826 -1.937906 18.556817 -53.864534 17.605849 -19.328461 61.080298 -2.060382 -10.689278 0.921443 0.018510 -0.146090 0.334460 -3.553787 -4.777501 -8.893747 18.245545 -10.499293 40.052164 -2.006674 -6.312227 3.389882 1.740973 -9.800483 -10.732296 -22.490588 11.976254 31.966730 -11.732230 10.152340 -14.309880 -11.261962 1.556920 3.101519 -9.828075 13.780809 -3.279931 -87.713406 -62.563594 52.428213 -3.534213 3.797233 0.545950 -0.060910 0.228160 0.193530 8.398476 3.736130 5.968141 31.480482 -10.001228 -11.224101 63.066984 57.316702 27.411094 2.082385 -2.101521 0.106880 -0.077390 -0.278430 -0.250560 
0.530700 15.622990 -0.593960 -7.476744 -20.179214 1.728693 -15.420983 12.855753 2.623103 -0.594631 0.873525 13.060206 -7.675229 13.049829 36.459566 1.094576 8.786770 1.731800 0.624320 0.238920 0.617040 18.497270 -7.435805 5.793841 -0.938423 17.653848 -52.359610 16.333465 -17.415324 57.613786 -1.797007 -9.762408 1.173233 -0.014720 -0.132120 0.339590 -3.661218 -4.595814 -8.760181 19.959839 -11.035275 36.492378 -2.696939 -6.507182 2.913087 2.036898 -9.577098 -10.856160 -22.199110 11.946395 32.968416 -12.024670 10.487380 -12.604400 -11.851975 1.177914 3.392172 -12.458641 13.423526 -3.560691 -85.797920 -56.474854 45.348845 -3.497777 3.844122 0.546670 -0.043240 0.204280 0.177470 8.366971 3.804210 5.876002 34.495914 -9.029232 -11.829018 58.702473 54.631985 23.739029 2.082338 -2.059965 0.091860 -0.097250 -0.253410 -0.261740 
0.533650 15.793270 -0.517270 -7.148003 -18.964260 3.887463 -15.341732 12.971253 2.599168 -1.012290 0.833049 10.871651 -6.081906 11.737205 35.245579 0.976934 8.242848 1.901721 0.568030 0.169860 0.574300 18.526733 -7.728580 5.635033 -0.032953 16.403984 -51.074676 14.282856 -14.880161 53.288732 -1.445703 -8.576040 1.512863 -0.054140 -0.107020 0.340270 -3.769408 -4.369816 -8.624023 21.066077 -10.906067 31.601948 -3.073943 -6.442630 2.221590 2.210737 -9.006258 -10.832200 -21.035199 11.459009 34.276009 -11.842850 10.916380 -9.033790 -12.362535 1.087002 3.617393 -16.776581 12.612189 -3.987990 -81.909653 -50.544695 37.424408 -3.487288 3.865492 0.501690 -0.007600 0.158980 0.168140 8.422124 3.514509 5.662763 37.978571 -8.007723 -12.215092 52.606223 50.682542 19.011112 2.104944 -2.026332 0.088890 -0.141850 -0.236910 -0.257450 
0.530160 15.984770 -0.460330 -5.968041 -17.766426 5.794352 -15.273044 13.066659 2.597215 -1.982580 0.699267 7.913210 -4.645765 10.674973 35.076841 0.884842 7.840270 2.053629 0.537210 0.135430 0.529250 18.547720 -8.029246 5.440726 0.393911 14.969621 -49.947751 12.108231 -12.326921 48.631094 -1.105202 -7.352248 1.898430 -0.066030 -0.032540 0.344090 -3.858937 -4.137624 -8.466258 20.687181 -10.387037 27.476571 -2.824944 -6.447407 0.977890 1.712054 -8.709915 -10.281151 -19.948975 11.505339 33.744694 -10.493110 11.060240 -6.540900 -13.088503 1.486445 3.505599 -20.805981 11.618608 -4.314493 -76.650206 -43.578477 28.639872 -3.507307 3.845824 0.450690 0.044420 0.108340 0.195090 10.044474 2.874916 4.889987 40.498698 -6.530228 -12.065926 45.416881 46.021826 14.218583 2.128433 -1.960620 0.077140 -0.138520 -0.233010 -0.232080 
0.521270 16.198580 -0.413950 -4.859860 -17.609801 7.690842 -15.224495 13.176402 2.637657 -2.907542 0.520209 4.495886 -4.130702 10.198933 35.351518 0.846414 7.574082 2.154692 0.492510 0.094440 0.475570 18.543891 -8.315700 5.217070 1.431185 13.744344 -48.118046 9.668167 -9.596778 43.028762 -0.748642 -5.945106 2.368723 -0.085760 0.024970 0.330320 -3.888983 -3.958111 -8.330182 19.555052 -9.359984 23.628815 -2.210675 -6.033326 0.200056 1.355015 -8.560423 -9.978163 -19.494536 11.480266 33.716415 -9.393080 11.010470 -3.664610 -13.758821 1.830827 3.457528 -26.856903 10.750085 -5.320009 -68.911565 -37.068614 20.042037 -3.520982 3.785373 0.393940 0.082180 0.060340 0.214740 11.355570 2.643638 4.443180 43.542520 -5.618223 -12.398771 38.870681 42.157207 10.395971 2.173833 -1.889644 0.067590 -0.139300 -0.230330 -0.203740 
0.511650 16.407000 -0.376350 -2.881010 -17.706858 8.959027 -15.241556 13.327524 2.798906 -4.467051 0.145437 0.899372 -4.036965 10.160302 36.851075 0.794522 7.626134 2.155450 0.402060 -0.025130 0.415570 18.467444 -8.570589 4.906828 1.873473 12.017384 -46.127699 6.993387 -7.244802 37.414535 -0.421143 -4.646928 2.830265 -0.122150 0.107430 0.294490 -3.709697 -4.000466 -8.272702 16.220509 -7.772225 20.644211 -0.640078 -5.296996 -0.398547 1.123981 -8.171702 -9.783002 -18.706935 11.194947 34.014177 -8.546670 10.772380 -1.483990 -14.005643 2.064016 3.345432 -34.300889 9.412779 -6.572275 -58.795965 -31.617289 12.812506 -3.578930 3.611077 0.398630 0.124050 -0.009140 0.203800 12.147502 2.607067 4.219399 46.812396 -4.950656 -12.888908 33.293872 38.651658 7.462510 2.186542 -1.761618 -0.011490 -0.089180 -0.175800 -0.215980 
0.503190 16.622330 -0.367200 -1.272426 -17.681989 9.337398 -15.292038 13.505755 3.018022 -5.223235 -0.789692 -2.812484 -4.385144 10.874954 40.603415 0.886436 8.105263 1.996609 0.384930 -0.039210 0.399640 18.345697 -8.831098 4.520088 2.280829 10.189474 -43.105598 5.113530 -5.570632 31.664727 -0.211658 -3.514540 3.254874 -0.131690 0.125090 0.269880 -3.405779 -4.134118 -8.268991 12.633794 -6.522525 19.501817 1.267452 -4.603519 -1.352220 0.973908 -7.823223 -9.519524 -18.279374 11.048258 35.280365 -8.056440 10.519050 -1.370370 -14.796869 2.230238 3.143639 -40.631266 8.313713 -7.623651 -49.041319 -27.180496 7.819357 -3.590723 3.445239 0.419690 0.117780 -0.005020 0.217350 13.445427 2.791975 3.844749 49.408449 -3.604120 -12.922937 27.824004 35.344116 5.134238 2.221857 -1.631800 -0.034510 -0.047240 -0.174830 -0.211720 
